<svg width="163" height="53" viewBox="0 0 163 53" fill="none" xmlns="http://www.w3.org/2000/svg">
<path d="M48.9937 9.24951H51.5449C52.7158 9.24951 53.6217 9.59147 54.2627 10.2754C54.9036 10.9593 55.2241 11.9082 55.2241 13.1221C55.2241 14.3395 54.9036 15.2902 54.2627 15.9741C53.6253 16.658 52.7194 17 51.5449 17H48.9937V9.24951ZM49.7295 9.91553V16.334H51.502C52.4437 16.334 53.1742 16.0511 53.6934 15.4854C54.2126 14.9196 54.4722 14.1336 54.4722 13.1274C54.4722 12.1213 54.2126 11.3353 53.6934 10.7695C53.1742 10.2002 52.4437 9.91553 51.502 9.91553H49.7295ZM61.0732 16.2964C60.6006 16.8299 59.9596 17.0967 59.1504 17.0967C58.3411 17.0967 57.7002 16.8299 57.2275 16.2964C56.7585 15.7593 56.5239 15.0288 56.5239 14.105C56.5239 13.1812 56.7585 12.4525 57.2275 11.9189C57.7002 11.3854 58.3411 11.1187 59.1504 11.1187C59.9596 11.1187 60.6006 11.3854 61.0732 11.9189C61.5459 12.4525 61.7822 13.1812 61.7822 14.105C61.7822 15.0288 61.5459 15.7593 61.0732 16.2964ZM57.7539 15.8345C58.0905 16.2498 58.556 16.4575 59.1504 16.4575C59.7448 16.4575 60.2103 16.2498 60.5469 15.8345C60.8835 15.4155 61.0518 14.839 61.0518 14.105C61.0518 13.3709 60.8835 12.7962 60.5469 12.3809C60.2103 11.9619 59.7448 11.7524 59.1504 11.7524C58.556 11.7524 58.0905 11.9619 57.7539 12.3809C57.4173 12.7962 57.249 13.3709 57.249 14.105C57.249 14.839 57.4173 15.4155 57.7539 15.8345ZM70.2417 11.2153L68.5928 17H67.8462L66.4229 12.1982H66.353L64.9297 17H64.1885L62.5503 11.2153H63.2646L64.5483 16.1245H64.6128L66.0415 11.2153H66.7451L68.1738 16.1245H68.2383L69.5327 11.2153H70.2417ZM71.5093 17V11.2153H72.1807V12.2573H72.2505C72.4045 11.8957 72.6408 11.6164 72.9595 11.4194C73.2782 11.2189 73.6649 11.1187 74.1196 11.1187C74.7642 11.1187 75.2619 11.3049 75.6128 11.6772C75.9673 12.0461 76.1445 12.5671 76.1445 13.2402V17H75.4409V13.4175C75.4409 12.3075 74.9378 11.7524 73.9316 11.7524C73.4196 11.7524 73.0042 11.9189 72.6855 12.252C72.3704 12.5814 72.2129 13.0182 72.2129 13.5625V17H71.5093ZM77.9653 17V8.91113H78.6689V17H77.9653ZM84.8027 16.2964C84.3301 16.8299 83.6891 17.0967 82.8799 17.0967C82.0706 17.0967 81.4297 16.8299 80.957 16.2964C80.488 15.7593 80.2534 15.0288 80.2534 14.105C80.2534 13.1812 80.488 12.4525 80.957 11.9189C81.4297 11.3854 82.0706 11.1187 82.8799 11.1187C83.6891 11.1187 84.3301 11.3854 84.8027 11.9189C85.2754 12.4525 85.5117 13.1812 85.5117 14.105C85.5117 15.0288 85.2754 15.7593 84.8027 16.2964ZM81.4834 15.8345C81.82 16.2498 82.2855 16.4575 82.8799 16.4575C83.4743 16.4575 83.9398 16.2498 84.2764 15.8345C84.613 15.4155 84.7812 14.839 84.7812 14.105C84.7812 13.3709 84.613 12.7962 84.2764 12.3809C83.9398 11.9619 83.4743 11.7524 82.8799 11.7524C82.2855 11.7524 81.82 11.9619 81.4834 12.3809C81.1468 12.7962 80.9785 13.3709 80.9785 14.105C80.9785 14.839 81.1468 15.4155 81.4834 15.8345ZM88.7612 16.4736C89.2804 16.4736 89.7137 16.3179 90.061 16.0063C90.4119 15.6912 90.5874 15.3045 90.5874 14.8462V14.1694L88.874 14.293C87.9036 14.361 87.4185 14.7262 87.4185 15.3887C87.4185 15.7181 87.5438 15.9813 87.7944 16.1782C88.0451 16.3752 88.3674 16.4736 88.7612 16.4736ZM88.6431 17.0967C88.0701 17.0967 87.6011 16.9427 87.2358 16.6348C86.8742 16.3232 86.6934 15.9115 86.6934 15.3994C86.6934 14.8981 86.8724 14.5042 87.2305 14.2178C87.5885 13.9277 88.1042 13.7594 88.7773 13.7129L90.5874 13.5947V13.0361C90.5874 12.6208 90.4639 12.3021 90.2168 12.0801C89.9733 11.8581 89.617 11.7471 89.1479 11.7471C88.7505 11.7471 88.4157 11.8276 88.1436 11.9888C87.875 12.1463 87.7067 12.3647 87.6387 12.644H86.9243C86.9924 12.1857 87.2305 11.8169 87.6387 11.5376C88.0505 11.2583 88.5607 11.1187 89.1694 11.1187C89.8462 11.1187 90.369 11.2869 90.7378 11.6235C91.1102 11.9565 91.2964 12.4256 91.2964 13.0308V17H90.6196V16.0063H90.5552C90.3797 16.3501 90.1237 16.6187 89.7871 16.812C89.4505 17.0018 89.0692 17.0967 88.6431 17.0967ZM95.2388 17.0967C94.5011 17.0967 93.9085 16.8245 93.4609 16.2803C93.0133 15.7324 92.7896 15.0091 92.7896 14.1104C92.7896 13.2152 93.0133 12.4937 93.4609 11.9458C93.9121 11.3944 94.5047 11.1187 95.2388 11.1187C95.6792 11.1187 96.0731 11.2279 96.4204 11.4463C96.7677 11.6647 97.0238 11.9637 97.1885 12.3433H97.2529V8.91113H97.9565V17H97.2798V15.8452H97.2153C97.0435 16.2319 96.7803 16.5381 96.4258 16.7637C96.0749 16.9857 95.6792 17.0967 95.2388 17.0967ZM95.3892 11.7524C94.8162 11.7524 94.3597 11.9655 94.0195 12.3916C93.6829 12.8177 93.5146 13.3888 93.5146 14.105C93.5146 14.8247 93.6829 15.3976 94.0195 15.8237C94.3597 16.2463 94.8162 16.4575 95.3892 16.4575C95.9585 16.4575 96.4132 16.2445 96.7534 15.8184C97.0936 15.3923 97.2637 14.8211 97.2637 14.105C97.2637 13.396 97.0918 12.8267 96.748 12.397C96.4079 11.9673 95.9549 11.7524 95.3892 11.7524ZM107.061 16.2964C106.588 16.8299 105.947 17.0967 105.138 17.0967C104.328 17.0967 103.688 16.8299 103.215 16.2964C102.746 15.7593 102.511 15.0288 102.511 14.105C102.511 13.1812 102.746 12.4525 103.215 11.9189C103.688 11.3854 104.328 11.1187 105.138 11.1187C105.947 11.1187 106.588 11.3854 107.061 11.9189C107.533 12.4525 107.77 13.1812 107.77 14.105C107.77 15.0288 107.533 15.7593 107.061 16.2964ZM103.741 15.8345C104.078 16.2498 104.543 16.4575 105.138 16.4575C105.732 16.4575 106.198 16.2498 106.534 15.8345C106.871 15.4155 107.039 14.839 107.039 14.105C107.039 13.3709 106.871 12.7962 106.534 12.3809C106.198 11.9619 105.732 11.7524 105.138 11.7524C104.543 11.7524 104.078 11.9619 103.741 12.3809C103.405 12.7962 103.236 13.3709 103.236 14.105C103.236 14.839 103.405 15.4155 103.741 15.8345ZM109.29 17V11.2153H109.961V12.2573H110.031C110.185 11.8957 110.421 11.6164 110.74 11.4194C111.058 11.2189 111.445 11.1187 111.9 11.1187C112.544 11.1187 113.042 11.3049 113.393 11.6772C113.748 12.0461 113.925 12.5671 113.925 13.2402V17H113.221V13.4175C113.221 12.3075 112.718 11.7524 111.712 11.7524C111.2 11.7524 110.785 11.9189 110.466 12.252C110.151 12.5814 109.993 13.0182 109.993 13.5625V17H109.29ZM119.033 9.71143H119.736V11.2153H121.074V11.8115H119.736V15.3994C119.736 15.7539 119.808 16.0117 119.951 16.1729C120.094 16.3304 120.329 16.4092 120.655 16.4092C120.816 16.4092 120.956 16.4038 121.074 16.3931V16.9946C120.931 17.0197 120.766 17.0322 120.58 17.0322C120.025 17.0322 119.627 16.9194 119.387 16.6938C119.151 16.4647 119.033 16.0869 119.033 15.5605V11.8115H118.087V11.2153H119.033V9.71143ZM122.61 17V8.91113H123.313V12.2573H123.378C123.535 11.8957 123.777 11.6164 124.103 11.4194C124.429 11.2189 124.821 11.1187 125.279 11.1187C125.902 11.1187 126.393 11.3066 126.751 11.6826C127.109 12.055 127.288 12.5742 127.288 13.2402V17H126.584V13.4175C126.584 12.8732 126.456 12.4596 126.198 12.1768C125.944 11.8939 125.575 11.7524 125.091 11.7524C124.551 11.7524 124.119 11.9207 123.797 12.2573C123.475 12.5903 123.313 13.0254 123.313 13.5625V17H122.61ZM131.343 11.7417C130.817 11.7417 130.385 11.9225 130.049 12.2842C129.712 12.6423 129.528 13.1185 129.496 13.7129H133.1C133.092 13.1149 132.928 12.6369 132.605 12.2788C132.287 11.9207 131.866 11.7417 131.343 11.7417ZM133.03 15.5713H133.744C133.601 16.0439 133.318 16.4163 132.896 16.6885C132.473 16.9606 131.959 17.0967 131.354 17.0967C130.559 17.0967 129.929 16.8281 129.463 16.291C128.998 15.7503 128.765 15.0234 128.765 14.1104C128.765 13.2008 128.998 12.4757 129.463 11.9351C129.932 11.3908 130.561 11.1187 131.349 11.1187C132.118 11.1187 132.725 11.3747 133.169 11.8867C133.613 12.3988 133.835 13.097 133.835 13.9814V14.293H129.49V14.3252C129.508 14.9805 129.685 15.5015 130.022 15.8882C130.362 16.2749 130.812 16.4683 131.37 16.4683C131.778 16.4683 132.126 16.3913 132.412 16.2373C132.699 16.0798 132.904 15.8577 133.03 15.5713Z" fill="white"/>
<path d="M57.8613 39L56.5869 35.3701H51.542L50.2676 39H48.6064L53.2822 26.3174H54.8467L59.5225 39H57.8613ZM53.9941 28.3652L52.0078 34.0254H56.1211L54.1348 28.3652H53.9941ZM66.167 29.3584C67.374 29.3584 68.3379 29.8037 69.0586 30.6943C69.7852 31.585 70.1484 32.7744 70.1484 34.2627C70.1484 35.7451 69.7852 36.9346 69.0586 37.8311C68.332 38.7217 67.3682 39.167 66.167 39.167C65.4932 39.167 64.8955 39.0293 64.374 38.7539C63.8525 38.4727 63.4629 38.0801 63.2051 37.5762H63.0645V42.1641H61.5527V29.5254H62.9941V31.1074H63.1348C63.4395 30.5625 63.8584 30.1348 64.3916 29.8242C64.9307 29.5137 65.5225 29.3584 66.167 29.3584ZM65.8066 37.8047C66.6738 37.8047 67.3535 37.4912 67.8457 36.8643C68.3379 36.2373 68.584 35.3701 68.584 34.2627C68.584 33.1553 68.3379 32.2881 67.8457 31.6611C67.3594 31.0342 66.6826 30.7207 65.8154 30.7207C64.96 30.7207 64.2803 31.04 63.7764 31.6787C63.2725 32.3115 63.0205 33.1729 63.0205 34.2627C63.0205 35.3467 63.2695 36.208 63.7676 36.8467C64.2715 37.4854 64.9512 37.8047 65.8066 37.8047ZM77.1357 29.3584C78.3428 29.3584 79.3066 29.8037 80.0273 30.6943C80.7539 31.585 81.1172 32.7744 81.1172 34.2627C81.1172 35.7451 80.7539 36.9346 80.0273 37.8311C79.3008 38.7217 78.3369 39.167 77.1357 39.167C76.4619 39.167 75.8643 39.0293 75.3428 38.7539C74.8213 38.4727 74.4316 38.0801 74.1738 37.5762H74.0332V42.1641H72.5215V29.5254H73.9629V31.1074H74.1035C74.4082 30.5625 74.8271 30.1348 75.3604 29.8242C75.8994 29.5137 76.4912 29.3584 77.1357 29.3584ZM76.7754 37.8047C77.6426 37.8047 78.3223 37.4912 78.8145 36.8643C79.3066 36.2373 79.5527 35.3701 79.5527 34.2627C79.5527 33.1553 79.3066 32.2881 78.8145 31.6611C78.3281 31.0342 77.6514 30.7207 76.7842 30.7207C75.9287 30.7207 75.249 31.04 74.7451 31.6787C74.2412 32.3115 73.9893 33.1729 73.9893 34.2627C73.9893 35.3467 74.2383 36.208 74.7363 36.8467C75.2402 37.4854 75.9199 37.8047 76.7754 37.8047ZM88.1572 35.6865H89.7568C89.8564 36.3486 90.1992 36.876 90.7852 37.2686C91.3711 37.6611 92.1152 37.8574 93.0176 37.8574C93.873 37.8574 94.5791 37.6523 95.1357 37.2422C95.6982 36.8262 95.9795 36.3047 95.9795 35.6777C95.9795 35.1387 95.7744 34.6934 95.3643 34.3418C94.9541 33.9844 94.3125 33.6943 93.4395 33.4717L91.8135 33.0498C90.665 32.7627 89.8301 32.3467 89.3086 31.8018C88.7871 31.2568 88.5264 30.5332 88.5264 29.6309C88.5264 28.5527 88.9365 27.6826 89.7568 27.0205C90.583 26.3525 91.667 26.0186 93.0088 26.0186C94.2334 26.0186 95.2588 26.3467 96.085 27.0029C96.9111 27.6592 97.3564 28.5 97.4209 29.5254H95.8301C95.7188 28.875 95.4082 28.3682 94.8984 28.0049C94.3945 27.6357 93.7471 27.4512 92.9561 27.4512C92.1123 27.4512 91.4326 27.6475 90.917 28.04C90.4072 28.4268 90.1523 28.9395 90.1523 29.5781C90.1523 30.0762 90.3398 30.4805 90.7148 30.791C91.0957 31.1016 91.7227 31.3682 92.5957 31.5908L93.9229 31.9424C95.2354 32.2705 96.1758 32.71 96.7441 33.2607C97.3184 33.8115 97.6055 34.5527 97.6055 35.4844C97.6055 36.6504 97.1777 37.5791 96.3223 38.2705C95.4668 38.9561 94.3154 39.2988 92.8682 39.2988C91.5264 39.2988 90.4248 38.9707 89.5635 38.3145C88.708 37.6582 88.2393 36.7822 88.1572 35.6865ZM100.682 27.0732H102.193V29.5254H104.303V30.791H102.193V36.1523C102.193 36.709 102.305 37.1133 102.527 37.3652C102.75 37.6172 103.107 37.7432 103.6 37.7432C103.816 37.7432 104.051 37.7314 104.303 37.708V38.9824C103.969 39.041 103.673 39.0703 103.415 39.0703C102.437 39.0703 101.736 38.874 101.314 38.4814C100.893 38.0889 100.682 37.4414 100.682 36.5391V30.791H99.1523V29.5254H100.682V27.0732ZM113.531 37.8574C112.752 38.7305 111.688 39.167 110.341 39.167C108.993 39.167 107.927 38.7305 107.142 37.8574C106.362 36.9785 105.973 35.7803 105.973 34.2627C105.973 32.7393 106.362 31.541 107.142 30.668C107.921 29.7949 108.987 29.3584 110.341 29.3584C111.694 29.3584 112.761 29.7949 113.54 30.668C114.319 31.541 114.709 32.7393 114.709 34.2627C114.709 35.7803 114.316 36.9785 113.531 37.8574ZM108.267 36.8818C108.753 37.4971 109.444 37.8047 110.341 37.8047C111.237 37.8047 111.929 37.4971 112.415 36.8818C112.901 36.2607 113.145 35.3877 113.145 34.2627C113.145 33.1377 112.901 32.2676 112.415 31.6523C111.929 31.0312 111.237 30.7207 110.341 30.7207C109.444 30.7207 108.753 31.0312 108.267 31.6523C107.78 32.2676 107.537 33.1377 107.537 34.2627C107.537 35.3877 107.78 36.2607 108.267 36.8818ZM117.082 39V29.5254H118.523V30.9316H118.664C118.805 30.4688 119.121 30.0908 119.613 29.7979C120.105 29.5049 120.665 29.3584 121.292 29.3584C121.579 29.3584 121.831 29.373 122.048 29.4023V30.9141C121.843 30.8555 121.521 30.8262 121.081 30.8262C120.36 30.8262 119.766 31.043 119.297 31.4766C118.828 31.9102 118.594 32.4609 118.594 33.1289V39H117.082ZM127.453 30.6943C126.697 30.6943 126.076 30.9492 125.59 31.459C125.104 31.9688 124.831 32.6426 124.772 33.4805H129.993C129.976 32.6426 129.735 31.9688 129.272 31.459C128.81 30.9492 128.203 30.6943 127.453 30.6943ZM129.949 36.5479H131.461C131.232 37.3682 130.767 38.0098 130.063 38.4727C129.366 38.9355 128.502 39.167 127.471 39.167C126.158 39.167 125.118 38.7275 124.351 37.8486C123.583 36.9639 123.199 35.7715 123.199 34.2715C123.199 32.7773 123.586 31.585 124.359 30.6943C125.133 29.8037 126.17 29.3584 127.471 29.3584C128.748 29.3584 129.753 29.7832 130.485 30.6328C131.218 31.4824 131.584 32.6455 131.584 34.1221V34.7021H124.772V34.7725C124.813 35.71 125.077 36.4541 125.563 37.0049C126.056 37.5557 126.703 37.8311 127.506 37.8311C128.73 37.8311 129.545 37.4033 129.949 36.5479Z" fill="white"/>
<path d="M32.0057 27.3563C31.9912 24.8921 33.1077 23.0349 35.3624 21.6654C34.1014 19.8588 32.1936 18.8651 29.6787 18.6736C27.2976 18.4857 24.6924 20.0611 23.7385 20.0611C22.7304 20.0611 20.4251 18.7387 18.6112 18.7387C14.8679 18.7965 10.8896 21.7232 10.8896 27.6779C10.8896 29.4376 11.2112 31.2551 11.8544 33.1268C12.7144 35.591 15.8146 41.6288 19.0484 41.5312C20.7395 41.4915 21.9354 40.3316 24.1359 40.3316C26.2714 40.3316 27.3771 41.5312 29.2632 41.5312C32.526 41.4843 35.3299 35.9957 36.1465 33.5242C31.7708 31.461 32.0057 27.4828 32.0057 27.3563V27.3563ZM28.2081 16.3358C30.04 14.1606 29.8738 12.1806 29.8196 11.4688C28.2009 11.5627 26.3292 12.5708 25.2633 13.8102C24.089 15.1398 23.3988 16.7839 23.547 18.6375C25.2958 18.7712 26.8929 17.8715 28.2081 16.3358V16.3358Z" fill="white"/>
<rect x="0.25" y="0.25" width="162.5" height="52.5" rx="10.75" stroke="white" stroke-width="0.5"/>
</svg>
