<svg width="163" height="53" viewBox="0 0 163 53" fill="none" xmlns="http://www.w3.org/2000/svg">
<path d="M48.9937 9.24951H51.5449C52.7158 9.24951 53.6217 9.59147 54.2627 10.2754C54.9036 10.9593 55.2241 11.9082 55.2241 13.1221C55.2241 14.3395 54.9036 15.2902 54.2627 15.9741C53.6253 16.658 52.7194 17 51.5449 17H48.9937V9.24951ZM49.7295 9.91553V16.334H51.502C52.4437 16.334 53.1742 16.0511 53.6934 15.4854C54.2126 14.9196 54.4722 14.1336 54.4722 13.1274C54.4722 12.1213 54.2126 11.3353 53.6934 10.7695C53.1742 10.2002 52.4437 9.91553 51.502 9.91553H49.7295ZM61.0732 16.2964C60.6006 16.8299 59.9596 17.0967 59.1504 17.0967C58.3411 17.0967 57.7002 16.8299 57.2275 16.2964C56.7585 15.7593 56.5239 15.0288 56.5239 14.105C56.5239 13.1812 56.7585 12.4525 57.2275 11.9189C57.7002 11.3854 58.3411 11.1187 59.1504 11.1187C59.9596 11.1187 60.6006 11.3854 61.0732 11.9189C61.5459 12.4525 61.7822 13.1812 61.7822 14.105C61.7822 15.0288 61.5459 15.7593 61.0732 16.2964ZM57.7539 15.8345C58.0905 16.2498 58.556 16.4575 59.1504 16.4575C59.7448 16.4575 60.2103 16.2498 60.5469 15.8345C60.8835 15.4155 61.0518 14.839 61.0518 14.105C61.0518 13.3709 60.8835 12.7962 60.5469 12.3809C60.2103 11.9619 59.7448 11.7524 59.1504 11.7524C58.556 11.7524 58.0905 11.9619 57.7539 12.3809C57.4173 12.7962 57.249 13.3709 57.249 14.105C57.249 14.839 57.4173 15.4155 57.7539 15.8345ZM70.2417 11.2153L68.5928 17H67.8462L66.4229 12.1982H66.353L64.9297 17H64.1885L62.5503 11.2153H63.2646L64.5483 16.1245H64.6128L66.0415 11.2153H66.7451L68.1738 16.1245H68.2383L69.5327 11.2153H70.2417ZM71.5093 17V11.2153H72.1807V12.2573H72.2505C72.4045 11.8957 72.6408 11.6164 72.9595 11.4194C73.2782 11.2189 73.6649 11.1187 74.1196 11.1187C74.7642 11.1187 75.2619 11.3049 75.6128 11.6772C75.9673 12.0461 76.1445 12.5671 76.1445 13.2402V17H75.4409V13.4175C75.4409 12.3075 74.9378 11.7524 73.9316 11.7524C73.4196 11.7524 73.0042 11.9189 72.6855 12.252C72.3704 12.5814 72.2129 13.0182 72.2129 13.5625V17H71.5093ZM77.9653 17V8.91113H78.6689V17H77.9653ZM84.8027 16.2964C84.3301 16.8299 83.6891 17.0967 82.8799 17.0967C82.0706 17.0967 81.4297 16.8299 80.957 16.2964C80.488 15.7593 80.2534 15.0288 80.2534 14.105C80.2534 13.1812 80.488 12.4525 80.957 11.9189C81.4297 11.3854 82.0706 11.1187 82.8799 11.1187C83.6891 11.1187 84.3301 11.3854 84.8027 11.9189C85.2754 12.4525 85.5117 13.1812 85.5117 14.105C85.5117 15.0288 85.2754 15.7593 84.8027 16.2964ZM81.4834 15.8345C81.82 16.2498 82.2855 16.4575 82.8799 16.4575C83.4743 16.4575 83.9398 16.2498 84.2764 15.8345C84.613 15.4155 84.7812 14.839 84.7812 14.105C84.7812 13.3709 84.613 12.7962 84.2764 12.3809C83.9398 11.9619 83.4743 11.7524 82.8799 11.7524C82.2855 11.7524 81.82 11.9619 81.4834 12.3809C81.1468 12.7962 80.9785 13.3709 80.9785 14.105C80.9785 14.839 81.1468 15.4155 81.4834 15.8345ZM88.7612 16.4736C89.2804 16.4736 89.7137 16.3179 90.061 16.0063C90.4119 15.6912 90.5874 15.3045 90.5874 14.8462V14.1694L88.874 14.293C87.9036 14.361 87.4185 14.7262 87.4185 15.3887C87.4185 15.7181 87.5438 15.9813 87.7944 16.1782C88.0451 16.3752 88.3674 16.4736 88.7612 16.4736ZM88.6431 17.0967C88.0701 17.0967 87.6011 16.9427 87.2358 16.6348C86.8742 16.3232 86.6934 15.9115 86.6934 15.3994C86.6934 14.8981 86.8724 14.5042 87.2305 14.2178C87.5885 13.9277 88.1042 13.7594 88.7773 13.7129L90.5874 13.5947V13.0361C90.5874 12.6208 90.4639 12.3021 90.2168 12.0801C89.9733 11.8581 89.617 11.7471 89.1479 11.7471C88.7505 11.7471 88.4157 11.8276 88.1436 11.9888C87.875 12.1463 87.7067 12.3647 87.6387 12.644H86.9243C86.9924 12.1857 87.2305 11.8169 87.6387 11.5376C88.0505 11.2583 88.5607 11.1187 89.1694 11.1187C89.8462 11.1187 90.369 11.2869 90.7378 11.6235C91.1102 11.9565 91.2964 12.4256 91.2964 13.0308V17H90.6196V16.0063H90.5552C90.3797 16.3501 90.1237 16.6187 89.7871 16.812C89.4505 17.0018 89.0692 17.0967 88.6431 17.0967ZM95.2388 17.0967C94.5011 17.0967 93.9085 16.8245 93.4609 16.2803C93.0133 15.7324 92.7896 15.0091 92.7896 14.1104C92.7896 13.2152 93.0133 12.4937 93.4609 11.9458C93.9121 11.3944 94.5047 11.1187 95.2388 11.1187C95.6792 11.1187 96.0731 11.2279 96.4204 11.4463C96.7677 11.6647 97.0238 11.9637 97.1885 12.3433H97.2529V8.91113H97.9565V17H97.2798V15.8452H97.2153C97.0435 16.2319 96.7803 16.5381 96.4258 16.7637C96.0749 16.9857 95.6792 17.0967 95.2388 17.0967ZM95.3892 11.7524C94.8162 11.7524 94.3597 11.9655 94.0195 12.3916C93.6829 12.8177 93.5146 13.3888 93.5146 14.105C93.5146 14.8247 93.6829 15.3976 94.0195 15.8237C94.3597 16.2463 94.8162 16.4575 95.3892 16.4575C95.9585 16.4575 96.4132 16.2445 96.7534 15.8184C97.0936 15.3923 97.2637 14.8211 97.2637 14.105C97.2637 13.396 97.0918 12.8267 96.748 12.397C96.4079 11.9673 95.9549 11.7524 95.3892 11.7524ZM107.061 16.2964C106.588 16.8299 105.947 17.0967 105.138 17.0967C104.328 17.0967 103.688 16.8299 103.215 16.2964C102.746 15.7593 102.511 15.0288 102.511 14.105C102.511 13.1812 102.746 12.4525 103.215 11.9189C103.688 11.3854 104.328 11.1187 105.138 11.1187C105.947 11.1187 106.588 11.3854 107.061 11.9189C107.533 12.4525 107.77 13.1812 107.77 14.105C107.77 15.0288 107.533 15.7593 107.061 16.2964ZM103.741 15.8345C104.078 16.2498 104.543 16.4575 105.138 16.4575C105.732 16.4575 106.198 16.2498 106.534 15.8345C106.871 15.4155 107.039 14.839 107.039 14.105C107.039 13.3709 106.871 12.7962 106.534 12.3809C106.198 11.9619 105.732 11.7524 105.138 11.7524C104.543 11.7524 104.078 11.9619 103.741 12.3809C103.405 12.7962 103.236 13.3709 103.236 14.105C103.236 14.839 103.405 15.4155 103.741 15.8345ZM109.29 17V11.2153H109.961V12.2573H110.031C110.185 11.8957 110.421 11.6164 110.74 11.4194C111.058 11.2189 111.445 11.1187 111.9 11.1187C112.544 11.1187 113.042 11.3049 113.393 11.6772C113.748 12.0461 113.925 12.5671 113.925 13.2402V17H113.221V13.4175C113.221 12.3075 112.718 11.7524 111.712 11.7524C111.2 11.7524 110.785 11.9189 110.466 12.252C110.151 12.5814 109.993 13.0182 109.993 13.5625V17H109.29ZM119.033 9.71143H119.736V11.2153H121.074V11.8115H119.736V15.3994C119.736 15.7539 119.808 16.0117 119.951 16.1729C120.094 16.3304 120.329 16.4092 120.655 16.4092C120.816 16.4092 120.956 16.4038 121.074 16.3931V16.9946C120.931 17.0197 120.766 17.0322 120.58 17.0322C120.025 17.0322 119.627 16.9194 119.387 16.6938C119.151 16.4647 119.033 16.0869 119.033 15.5605V11.8115H118.087V11.2153H119.033V9.71143ZM122.61 17V8.91113H123.313V12.2573H123.378C123.535 11.8957 123.777 11.6164 124.103 11.4194C124.429 11.2189 124.821 11.1187 125.279 11.1187C125.902 11.1187 126.393 11.3066 126.751 11.6826C127.109 12.055 127.288 12.5742 127.288 13.2402V17H126.584V13.4175C126.584 12.8732 126.456 12.4596 126.198 12.1768C125.944 11.8939 125.575 11.7524 125.091 11.7524C124.551 11.7524 124.119 11.9207 123.797 12.2573C123.475 12.5903 123.313 13.0254 123.313 13.5625V17H122.61ZM131.343 11.7417C130.817 11.7417 130.385 11.9225 130.049 12.2842C129.712 12.6423 129.528 13.1185 129.496 13.7129H133.1C133.092 13.1149 132.928 12.6369 132.605 12.2788C132.287 11.9207 131.866 11.7417 131.343 11.7417ZM133.03 15.5713H133.744C133.601 16.0439 133.318 16.4163 132.896 16.6885C132.473 16.9606 131.959 17.0967 131.354 17.0967C130.559 17.0967 129.929 16.8281 129.463 16.291C128.998 15.7503 128.765 15.0234 128.765 14.1104C128.765 13.2008 128.998 12.4757 129.463 11.9351C129.932 11.3908 130.561 11.1187 131.349 11.1187C132.118 11.1187 132.725 11.3747 133.169 11.8867C133.613 12.3988 133.835 13.097 133.835 13.9814V14.293H129.49V14.3252C129.508 14.9805 129.685 15.5015 130.022 15.8882C130.362 16.2749 130.812 16.4683 131.37 16.4683C131.778 16.4683 132.126 16.3913 132.412 16.2373C132.699 16.0798 132.904 15.8577 133.03 15.5713Z" fill="white"/>
<path d="M60.2607 34.0957C60.2607 35.6602 59.7686 36.9199 58.7842 37.875C57.7998 38.8242 56.4961 39.2988 54.873 39.2988C53.1211 39.2988 51.7236 38.6982 50.6807 37.4971C49.6436 36.2959 49.125 34.6816 49.125 32.6543C49.125 30.6504 49.6494 29.0449 50.6982 27.8379C51.7471 26.625 53.1387 26.0186 54.873 26.0186C56.2793 26.0186 57.457 26.3848 58.4062 27.1172C59.3613 27.8496 59.9531 28.8428 60.1816 30.0967H58.5732C58.2979 29.2412 57.8467 28.5908 57.2197 28.1455C56.5928 27.7002 55.8105 27.4775 54.873 27.4775C53.6191 27.4775 52.6172 27.9463 51.8672 28.8838C51.123 29.8213 50.751 31.0781 50.751 32.6543C50.751 34.2539 51.1201 35.5195 51.8584 36.4512C52.6025 37.377 53.6104 37.8398 54.8818 37.8398C56.0186 37.8398 56.9355 37.5088 57.6328 36.8467C58.3359 36.1846 58.6875 35.3174 58.6875 34.2451V33.9375H55.1191V32.5488H60.2607V34.0957ZM69.9551 37.8574C69.1758 38.7305 68.1123 39.167 66.7646 39.167C65.417 39.167 64.3506 38.7305 63.5654 37.8574C62.7861 36.9785 62.3965 35.7803 62.3965 34.2627C62.3965 32.7393 62.7861 31.541 63.5654 30.668C64.3447 29.7949 65.4111 29.3584 66.7646 29.3584C68.1182 29.3584 69.1846 29.7949 69.9639 30.668C70.7432 31.541 71.1328 32.7393 71.1328 34.2627C71.1328 35.7803 70.7402 36.9785 69.9551 37.8574ZM64.6904 36.8818C65.1768 37.4971 65.8682 37.8047 66.7646 37.8047C67.6611 37.8047 68.3525 37.4971 68.8389 36.8818C69.3252 36.2607 69.5684 35.3877 69.5684 34.2627C69.5684 33.1377 69.3252 32.2676 68.8389 31.6523C68.3525 31.0312 67.6611 30.7207 66.7646 30.7207C65.8682 30.7207 65.1768 31.0312 64.6904 31.6523C64.2041 32.2676 63.9609 33.1377 63.9609 34.2627C63.9609 35.3877 64.2041 36.2607 64.6904 36.8818ZM80.5898 37.8574C79.8105 38.7305 78.7471 39.167 77.3994 39.167C76.0518 39.167 74.9854 38.7305 74.2002 37.8574C73.4209 36.9785 73.0312 35.7803 73.0312 34.2627C73.0312 32.7393 73.4209 31.541 74.2002 30.668C74.9795 29.7949 76.0459 29.3584 77.3994 29.3584C78.7529 29.3584 79.8193 29.7949 80.5986 30.668C81.3779 31.541 81.7676 32.7393 81.7676 34.2627C81.7676 35.7803 81.375 36.9785 80.5898 37.8574ZM75.3252 36.8818C75.8115 37.4971 76.5029 37.8047 77.3994 37.8047C78.2959 37.8047 78.9873 37.4971 79.4736 36.8818C79.96 36.2607 80.2031 35.3877 80.2031 34.2627C80.2031 33.1377 79.96 32.2676 79.4736 31.6523C78.9873 31.0312 78.2959 30.7207 77.3994 30.7207C76.5029 30.7207 75.8115 31.0312 75.3252 31.6523C74.8389 32.2676 74.5957 33.1377 74.5957 34.2627C74.5957 35.3877 74.8389 36.2607 75.3252 36.8818ZM87.9727 37.5234C88.8457 37.5234 89.5312 37.2188 90.0293 36.6094C90.5332 35.9941 90.7852 35.165 90.7852 34.1221C90.7852 33.085 90.5332 32.2588 90.0293 31.6436C89.5254 31.0283 88.8398 30.7207 87.9727 30.7207C87.1055 30.7207 86.4316 31.0254 85.9512 31.6348C85.4707 32.2441 85.2305 33.0732 85.2305 34.1221C85.2305 35.1709 85.4707 36 85.9512 36.6094C86.4316 37.2188 87.1055 37.5234 87.9727 37.5234ZM88.043 42.6387C86.9121 42.6387 85.9951 42.4043 85.292 41.9355C84.5947 41.4668 84.1875 40.8369 84.0703 40.0459H85.6699C85.752 40.4385 86.001 40.749 86.417 40.9775C86.833 41.2061 87.375 41.3203 88.043 41.3203C88.8926 41.3203 89.5547 41.1211 90.0293 40.7227C90.5098 40.3301 90.75 39.7852 90.75 39.0879V37.2246H90.6094C90.3105 37.7461 89.9033 38.1504 89.3877 38.4375C88.8721 38.7188 88.2891 38.8594 87.6387 38.8594C86.4199 38.8594 85.4531 38.4287 84.7383 37.5674C84.0234 36.7002 83.666 35.5518 83.666 34.1221C83.666 32.6924 84.0264 31.541 84.7471 30.668C85.4678 29.7949 86.4316 29.3584 87.6387 29.3584C88.3008 29.3584 88.9043 29.5107 89.4492 29.8154C89.9941 30.1143 90.4043 30.5186 90.6797 31.0283H90.8203V29.5254H92.2617V39.167C92.2617 40.2275 91.8809 41.0713 91.1191 41.6982C90.3574 42.3252 89.332 42.6387 88.043 42.6387ZM95.1973 39V25.7637H96.709V39H95.1973ZM103.424 30.6943C102.668 30.6943 102.047 30.9492 101.561 31.459C101.074 31.9688 100.802 32.6426 100.743 33.4805H105.964C105.946 32.6426 105.706 31.9688 105.243 31.459C104.78 30.9492 104.174 30.6943 103.424 30.6943ZM105.92 36.5479H107.432C107.203 37.3682 106.737 38.0098 106.034 38.4727C105.337 38.9355 104.473 39.167 103.441 39.167C102.129 39.167 101.089 38.7275 100.321 37.8486C99.5537 36.9639 99.1699 35.7715 99.1699 34.2715C99.1699 32.7773 99.5566 31.585 100.33 30.6943C101.104 29.8037 102.141 29.3584 103.441 29.3584C104.719 29.3584 105.724 29.7832 106.456 30.6328C107.188 31.4824 107.555 32.6455 107.555 34.1221V34.7021H100.743V34.7725C100.784 35.71 101.048 36.4541 101.534 37.0049C102.026 37.5557 102.674 37.8311 103.477 37.8311C104.701 37.8311 105.516 37.4033 105.92 36.5479ZM115.201 26.3174H119.991C121.192 26.3174 122.168 26.7012 122.918 27.4688C123.674 28.2305 124.052 29.2148 124.052 30.4219C124.052 31.6055 123.668 32.5781 122.9 33.3398C122.139 34.0957 121.163 34.4736 119.974 34.4736H116.783V39H115.201V26.3174ZM116.783 27.7236V33.0674H119.578C120.48 33.0674 121.181 32.8359 121.679 32.373C122.177 31.9102 122.426 31.2598 122.426 30.4219C122.426 29.5488 122.18 28.8809 121.688 28.418C121.201 27.9551 120.498 27.7236 119.578 27.7236H116.783ZM126.539 39V25.7637H128.051V39H126.539ZM133.904 37.8398C134.684 37.8398 135.328 37.6143 135.838 37.1631C136.354 36.7119 136.611 36.1465 136.611 35.4668V34.5967L134.062 34.7637C133.348 34.8105 132.823 34.96 132.489 35.2119C132.155 35.4639 131.988 35.8301 131.988 36.3105C131.988 36.7852 132.167 37.1602 132.524 37.4355C132.882 37.7051 133.342 37.8398 133.904 37.8398ZM133.623 39.167C132.691 39.167 131.924 38.9121 131.32 38.4023C130.723 37.8867 130.424 37.2012 130.424 36.3457C130.424 35.502 130.723 34.8398 131.32 34.3594C131.918 33.8789 132.771 33.6064 133.878 33.542L136.611 33.375V32.5137C136.611 31.9277 136.43 31.4795 136.066 31.1689C135.703 30.8584 135.17 30.7031 134.467 30.7031C133.898 30.7031 133.427 30.8057 133.052 31.0107C132.677 31.2158 132.437 31.5059 132.331 31.8809H130.802C130.901 31.125 131.291 30.5156 131.971 30.0527C132.656 29.5898 133.506 29.3584 134.52 29.3584C135.668 29.3584 136.556 29.6367 137.183 30.1934C137.81 30.75 138.123 31.5234 138.123 32.5137V39H136.682V37.6025H136.541C136.236 38.1064 135.832 38.4932 135.328 38.7627C134.824 39.0322 134.256 39.167 133.623 39.167ZM141.375 42.4277C141.135 42.4277 140.909 42.4102 140.698 42.375V41.083C140.851 41.1123 141.062 41.127 141.331 41.127C141.771 41.127 142.119 41.0098 142.377 40.7754C142.641 40.541 142.872 40.1396 143.071 39.5713L143.247 39.0088L139.74 29.5254H141.375L143.977 37.3213H144.117L146.71 29.5254H148.318L144.618 39.5801C144.214 40.6758 143.783 41.4229 143.326 41.8213C142.869 42.2256 142.219 42.4277 141.375 42.4277Z" fill="white"/>
<rect x="0.25" y="0.25" width="162.5" height="52.5" rx="10.75" stroke="white" stroke-width="0.5"/>
<g clip-path="url(#clip0_53_324)">
<path d="M33.1765 31.2792C36.4732 29.4579 38.9724 28.0701 39.1878 27.9622C39.8769 27.5935 40.5886 26.6175 39.1878 25.8595C38.7356 25.6211 36.3006 24.2765 33.1765 22.5424L28.8457 26.9432L33.1765 31.2791V31.2792Z" fill="#FFD900"/>
<path d="M28.8455 26.9431L15.0557 40.9271C15.3793 40.9702 15.7448 40.8838 16.1756 40.6455C17.0801 40.1474 26.6688 34.8786 33.1763 31.2802L28.8455 26.9431Z" fill="#F43249"/>
<path d="M28.8455 26.9431L33.1763 22.5639C33.1763 22.5639 17.1455 13.7612 16.1755 13.2416C15.8101 13.0238 15.4006 12.9591 15.0342 13.0238L28.8455 26.9431V26.9431Z" fill="#00EE76"/>
<path d="M28.8455 26.9433L15.0342 13.024C14.4737 13.1544 14 13.6527 14 14.6717V39.2795C14 40.2122 14.3665 40.884 15.0556 40.9488L28.8455 26.9433Z" fill="#00D3FF"/>
</g>
<defs>
<clipPath id="clip0_53_324">
<rect width="26" height="28" fill="white" transform="translate(14 13)"/>
</clipPath>
</defs>
</svg>
