<svg width="35" height="35" viewBox="0 0 35 35" fill="none" xmlns="http://www.w3.org/2000/svg">
<path d="M17.5 11.5542C19.4305 11.5542 19.6718 11.5542 20.456 11.6149C22.4468 11.6755 23.3517 12.6463 23.4121 14.5878C23.4724 15.3765 23.4724 15.5585 23.4724 17.5C23.4724 19.4415 23.4724 19.6842 23.4121 20.4123C23.3517 22.3538 22.3865 23.3245 20.456 23.3852C19.6718 23.4459 19.4908 23.4459 17.5 23.4459C15.5695 23.4459 15.3282 23.4459 14.6043 23.3852C12.6135 23.3245 11.7086 22.3538 11.6483 20.4123C11.5879 19.6235 11.5879 19.4415 11.5879 17.5C11.5879 15.5585 11.5879 15.3158 11.6483 14.5878C11.7086 12.6463 12.6738 11.6755 14.6043 11.6149C15.3282 11.5542 15.5695 11.5542 17.5 11.5542ZM17.5 10.2194C15.5092 10.2194 15.2679 10.2194 14.544 10.2801C11.8896 10.4014 10.4417 11.8576 10.3211 14.5271C10.2607 15.2552 10.2607 15.4979 10.2607 17.5C10.2607 19.5022 10.2607 19.7449 10.3211 20.4729C10.4417 23.1425 11.8896 24.5986 14.544 24.72C15.2679 24.7806 15.5092 24.7806 17.5 24.7806C19.4908 24.7806 19.7321 24.7806 20.456 24.72C23.1104 24.5986 24.5583 23.1425 24.6789 20.4729C24.7393 19.7449 24.7393 19.5022 24.7393 17.5C24.7393 15.4979 24.7393 15.2552 24.6789 14.5271C24.5583 11.8576 23.1104 10.4014 20.456 10.2801C19.7321 10.2194 19.4908 10.2194 17.5 10.2194ZM17.5 13.7384C15.4489 13.7384 13.7597 15.4372 13.7597 17.5C13.7597 19.5629 15.4489 21.2617 17.5 21.2617C19.5511 21.2617 21.2403 19.5629 21.2403 17.5C21.2403 15.4372 19.5511 13.7384 17.5 13.7384ZM17.5 19.9269C16.1728 19.9269 15.0869 18.8348 15.0869 17.5C15.0869 16.1653 16.1728 15.0732 17.5 15.0732C18.8272 15.0732 19.9131 16.1653 19.9131 17.5C19.9131 18.8348 18.8272 19.9269 17.5 19.9269ZM21.3609 12.7676C20.8783 12.7676 20.5164 13.1317 20.5164 13.617C20.5164 14.1024 20.8783 14.4664 21.3609 14.4664C21.8436 14.4664 22.2055 14.1024 22.2055 13.617C22.2055 13.1317 21.8436 12.7676 21.3609 12.7676Z" fill="white"/>
<circle cx="17.5" cy="17.5" r="17.25" stroke="#D0D0D0" stroke-width="0.5"/>
</svg>
