<svg width="35" height="35" viewBox="0 0 35 35" fill="none" xmlns="http://www.w3.org/2000/svg">
<circle cx="17.5" cy="17.5" r="17.25" stroke="#D0D0D0" stroke-width="0.5"/>
<path d="M26.7475 12.497C26.156 12.7591 25.5206 12.9362 24.8527 13.0162C25.5419 12.6038 26.0575 11.9548 26.3034 11.1901C25.6558 11.5748 24.9471 11.8455 24.2081 11.9906C23.7111 11.4599 23.0529 11.1082 22.3355 10.99C21.6181 10.8718 20.8818 10.9938 20.2409 11.3369C19.6 11.6801 19.0902 12.2253 18.7909 12.8878C18.4915 13.5503 18.4193 14.2932 18.5854 15.001C17.2733 14.9351 15.9898 14.5941 14.818 14C13.6463 13.406 12.6126 12.5722 11.7839 11.5528C11.5006 12.0416 11.3377 12.6082 11.3377 13.2117C11.3374 13.755 11.4712 14.29 11.7272 14.7692C11.9832 15.2483 12.3536 15.6569 12.8054 15.9586C12.2814 15.942 11.769 15.8004 11.3108 15.5457V15.5882C11.3107 16.3502 11.5743 17.0887 12.0568 17.6785C12.5393 18.2682 13.2109 18.6729 13.9578 18.8238C13.4717 18.9554 12.9621 18.9748 12.4675 18.8805C12.6782 19.5362 13.0887 20.1095 13.6414 20.5203C14.1942 20.931 14.8616 21.1586 15.5501 21.1713C14.3813 22.0888 12.9377 22.5866 11.4517 22.5844C11.1885 22.5845 10.9255 22.5691 10.6641 22.5383C12.1724 23.5082 13.9283 24.0229 15.7216 24.0209C21.792 24.0209 25.1105 18.9931 25.1105 14.6326C25.1105 14.491 25.107 14.3479 25.1006 14.2062C25.7461 13.7394 26.3033 13.1614 26.7461 12.4991L26.7475 12.497Z" fill="white"/>
</svg>
